<svg xmlns="http://www.w3.org/2000/svg" width="41.625" height="32.748"><g data-name="Group 210" fill="none" stroke="#cd6643" stroke-linecap="round" stroke-miterlimit="10" stroke-width="2.5"><path data-name="Path 122" d="M10.943 10.198c-8.2 2.8-6.353 11.445-6.353 11.445a5.9 5.9 0 00-3.28 5.991c.567 4.225 4.922 3.847 4.922 3.847h27.533a4.4 4.4 0 004-4.414c0-4.035-3.067-3.926-3.067-3.926s.356-5.084-3.68-7.768a9.432 9.432 0 00-7.083-1.563.941.941 0 01-.909-.318 10.835 10.835 0 00-12.083-3.294z"/><path data-name="Path 123" d="M21.089 11.579a6.933 6.933 0 1112.571 5.772"/><path data-name="Line 16" d="M20.479 6.489l-1.943-1.95"/><path data-name="Line 17" d="M37.201 17.816l1.47.644"/><path data-name="Line 24" d="M27.574 4.16V1.25"/><path data-name="Line 25" d="M34.844 6.847l1.825-1.866"/><path data-name="Line 26" d="M37.713 14.041l2.648-.03"/><path data-name="Line 27" d="M23.719 4.906l-.74-1.49"/><path data-name="Line 28" d="M31.376 4.906l.743-1.551"/><path data-name="Line 29" d="M36.706 10.373l1.697-.681"/></g></svg>